<svg xmlns="http://www.w3.org/2000/svg" width="150" height="150" fill="none" viewBox="0 0 150 150"><path fill="#000" fill-opacity=".2" d="M75 150C116.421 150 150 116.421 150 75C150 33.5786 116.421 0 75 0C33.5786 0 0 33.5786 0 75C0 116.421 33.5786 150 75 150Z"/><path fill="#fff" d="M117 74.9828L51 114V36L117 74.9828Z"/><path fill="#fff" fill-rule="evenodd" d="M75 147C114.765 147 147 114.765 147 75C147 35.2355 114.765 3 75 3C35.2355 3 3 35.2355 3 75C3 114.765 35.2355 147 75 147ZM75 140C110.899 140 140 110.899 140 75C140 39.1015 110.899 10 75 10C39.1015 10 10 39.1015 10 75C10 110.899 39.1015 140 75 140Z" clip-rule="evenodd"/></svg>