<svg xmlns="http://www.w3.org/2000/svg" width="154" height="154" fill="none" viewBox="0 0 154 154"><g filter="url(#filter0_d_915_789)"><circle cx="76" cy="76" r="75" fill="#1BBE72"/></g><path fill="#fff" d="M114.907 73.9349L59.9075 36.4349C59.14 35.9149 58.15 35.8574 57.33 36.2899C56.5125 36.7224 56 37.5724 56 38.4999V113.5C56 114.427 56.5125 115.277 57.3325 115.71C57.6975 115.905 58.1 116 58.5 116C58.9925 116 59.485 115.852 59.9075 115.565L114.907 78.0649C115.59 77.5999 116 76.8274 116 75.9999C116 75.1724 115.59 74.3999 114.907 73.9349ZM61 108.767V43.2324L109.062 75.9999L61 108.767Z"/><defs><filter id="filter0_d_915_789" width="154" height="154" x="0" y="0" color-interpolation-filters="sRGB" filterUnits="userSpaceOnUse"><feFlood flood-opacity="0" result="BackgroundImageFix"/><feColorMatrix in="SourceAlpha" result="hardAlpha" type="matrix" values="0 0 0 0 0 0 0 0 0 0 0 0 0 0 0 0 0 0 127 0"/><feOffset dx="1" dy="1"/><feGaussianBlur stdDeviation="1"/><feComposite in2="hardAlpha" operator="out"/><feColorMatrix type="matrix" values="0 0 0 0 0 0 0 0 0 0 0 0 0 0 0 0 0 0 0.3 0"/><feBlend in2="BackgroundImageFix" mode="normal" result="effect1_dropShadow_915_789"/><feBlend in="SourceGraphic" in2="effect1_dropShadow_915_789" mode="normal" result="shape"/></filter></defs></svg>